<svg width="549" height="860" viewBox="0 0 549 860" fill="none" xmlns="http://www.w3.org/2000/svg">
<path fill-rule="evenodd" clip-rule="evenodd" d="M-174.806 12.6623C-25.4913 -73.5541 158.491 -73.5541 307.806 12.6623C457.094 98.8636 549 258.214 549 430.5C549 602.786 457.094 762.136 307.806 848.338C158.491 934.554 -25.4913 934.554 -174.806 848.338C-324.094 762.136 -416 602.786 -416 430.5C-416 258.214 -324.094 98.8636 -174.806 12.6623ZM177.343 238.518C108.756 198.915 24.2442 198.915 -44.3426 238.518C-112.869 278.086 -155.134 351.305 -155.134 430.5C-155.134 509.695 -112.869 582.914 -44.3426 622.482C24.2442 662.085 108.756 662.085 177.343 622.482C245.868 582.914 288.134 509.695 288.134 430.5C288.134 351.305 245.868 278.086 177.343 238.518Z" fill="#48C8FF"/>
</svg>
